<svg xmlns="http://www.w3.org/2000/svg" width="17.693" height="21.231" viewBox="0 0 17.693 21.231">
  <path id="file-invoice_1_" data-name="file-invoice (1)" d="M17.88,4.9,14.8,1.815A6.152,6.152,0,0,0,10.418,0H6.423A4.427,4.427,0,0,0,2,4.423V16.809a4.428,4.428,0,0,0,4.423,4.423H15.27a4.428,4.428,0,0,0,4.423-4.423V9.276A6.154,6.154,0,0,0,17.88,4.9ZM16.629,6.149a4.451,4.451,0,0,1,.712.929H13.5a.886.886,0,0,1-.885-.885V2.352a4.428,4.428,0,0,1,.929.712l3.083,3.083Zm1.3,10.66a2.657,2.657,0,0,1-2.654,2.654H6.423a2.657,2.657,0,0,1-2.654-2.654V4.423A2.657,2.657,0,0,1,6.423,1.769h3.994c.144,0,.288.007.429.02v4.4A2.657,2.657,0,0,0,13.5,8.847h4.4c.013.142.02.285.02.429v7.533ZM13.943,11.5H7.75a2.215,2.215,0,0,0-2.212,2.212v1.769A2.215,2.215,0,0,0,7.75,17.693h6.193a2.215,2.215,0,0,0,2.212-2.212V13.712A2.215,2.215,0,0,0,13.943,11.5Zm.442,3.981a.442.442,0,0,1-.442.442H7.75a.442.442,0,0,1-.442-.442V13.712a.442.442,0,0,1,.442-.442h6.193a.442.442,0,0,1,.442.442ZM5.539,8.847a.885.885,0,0,1,.885-.885H8.193a.885.885,0,1,1,0,1.769H6.423A.885.885,0,0,1,5.539,8.847Zm0-3.539a.885.885,0,0,1,.885-.885H8.193a.885.885,0,1,1,0,1.769H6.423A.885.885,0,0,1,5.539,5.308Z" transform="translate(-2 -0.001)" fill="#6c7293"/>
</svg>
