<svg xmlns="http://www.w3.org/2000/svg" width="22.84" height="17.611" viewBox="0 0 22.84 17.611">
  <g id="Group_68365" data-name="Group 68365" transform="translate(-96.75 -288.75)">
    <path id="Path_78" data-name="Path 78" d="M117.914,291.852h-1.426v-1.426A1.428,1.428,0,0,0,115.062,289H98.426A1.428,1.428,0,0,0,97,290.426v11.408a1.428,1.428,0,0,0,1.426,1.426h1.426v1.426a1.428,1.428,0,0,0,1.426,1.426h16.636a1.428,1.428,0,0,0,1.426-1.426V293.278A1.428,1.428,0,0,0,117.914,291.852Zm-2.852-1.9a.476.476,0,0,1,.475.475V291.8a2.384,2.384,0,0,1-1.853-1.853Zm-17.111.475a.476.476,0,0,1,.475-.475H99.8a2.384,2.384,0,0,1-1.853,1.853Zm.475,11.883a.476.476,0,0,1-.475-.475v-1.378a2.384,2.384,0,0,1,1.853,1.853Zm-.475-2.814v-6.73a3.329,3.329,0,0,0,2.814-2.814h11.959a3.33,3.33,0,0,0,2.814,2.814v6.73a3.329,3.329,0,0,0-2.814,2.814H100.765A3.329,3.329,0,0,0,97.951,299.495Zm17.587.961v1.378a.476.476,0,0,1-.475.475h-1.378A2.384,2.384,0,0,1,115.537,300.456Zm2.852,4.23a.476.476,0,0,1-.475.475H101.278a.476.476,0,0,1-.475-.475v-1.426h14.259a1.428,1.428,0,0,0,1.426-1.426V292.8h1.426a.476.476,0,0,1,.475.475Z" transform="translate(0 0)" fill="#6c7293" stroke="#6c7293" stroke-width="0.5"/>
    <path id="Path_79" data-name="Path 79" d="M112.253,294a4.753,4.753,0,1,0,4.753,4.753A4.759,4.759,0,0,0,112.253,294Zm0,8.556a3.8,3.8,0,1,1,3.8-3.8A3.807,3.807,0,0,1,112.253,302.556Z" transform="translate(-5.509 -2.623)" fill="#6c7293" stroke="#6c7293" stroke-width="0.5"/>
    <path id="Path_80" data-name="Path 80" d="M115.352,299.475a.475.475,0,0,0-.475-.475,2.379,2.379,0,0,0-2.377,2.377.475.475,0,0,0,.951,0,1.428,1.428,0,0,1,1.426-1.426A.475.475,0,0,0,115.352,299.475Z" transform="translate(-8.133 -5.247)" fill="#6c7293" stroke="#6c7293" stroke-width="0.5"/>
    <path id="Path_81" data-name="Path 81" d="M118.877,303a.475.475,0,0,0-.475.475,1.428,1.428,0,0,1-1.426,1.426.475.475,0,1,0,0,.951,2.379,2.379,0,0,0,2.377-2.377A.475.475,0,0,0,118.877,303Z" transform="translate(-10.231 -7.346)" fill="#6c7293" stroke="#6c7293" stroke-width="0.5"/>
  </g>
</svg>
