<svg id="interrogation" xmlns="http://www.w3.org/2000/svg" width="20.1" height="20.1" viewBox="0 0 20.1 20.1">
  <path id="Path_69389" data-name="Path 69389" d="M10.05,0A10.05,10.05,0,1,0,20.1,10.05,10.05,10.05,0,0,0,10.05,0Zm0,18.425a8.375,8.375,0,1,1,8.375-8.375A8.375,8.375,0,0,1,10.05,18.425Z" fill="#6c7293"/>
  <path id="Path_69390" data-name="Path 69390" d="M11.95,5.052A3.35,3.35,0,0,0,8,8.35a.837.837,0,1,0,1.675,0A1.675,1.675,0,0,1,11.661,6.7,1.7,1.7,0,0,1,13,8.038a1.675,1.675,0,0,1-.837,1.78,3.311,3.311,0,0,0-1.651,2.935v.622a.837.837,0,0,0,1.675,0v-.622a1.66,1.66,0,0,1,.779-1.467A3.35,3.35,0,0,0,11.95,5.052Z" transform="translate(-1.3 -0.812)" fill="#6c7293"/>
  <rect id="Rectangle_23788" data-name="Rectangle 23788" width="2" height="2" rx="1" transform="translate(9.05 14.05)" fill="#6c7293"/>
</svg>
