<svg xmlns="http://www.w3.org/2000/svg" width="18.332" height="20.374" viewBox="0 0 18.332 20.374">
  <g id="settings" transform="translate(-1.203)">
    <path id="Path_69391" data-name="Path 69391" d="M11.4,8a3.4,3.4,0,1,0,3.4,3.4A3.4,3.4,0,0,0,11.4,8Zm0,5.094a1.7,1.7,0,1,1,1.7-1.7A1.7,1.7,0,0,1,11.4,13.094Z" transform="translate(-1.027 -1.209)" fill="#6c7293"/>
    <path id="Path_69392" data-name="Path 69392" d="M18.259,11.8l-.377-.217a7.725,7.725,0,0,0,0-2.793l.377-.217a2.548,2.548,0,1,0-2.547-4.414l-.378.218a7.621,7.621,0,0,0-2.419-1.394V2.547a2.547,2.547,0,1,0-5.094,0v.435A7.621,7.621,0,0,0,5.4,4.38l-.379-.22A2.548,2.548,0,1,0,2.478,8.574l.377.217a7.725,7.725,0,0,0,0,2.793l-.377.217a2.548,2.548,0,1,0,2.547,4.414L5.4,16a7.621,7.621,0,0,0,2.419,1.394v.435a2.547,2.547,0,1,0,5.094,0v-.435a7.621,7.621,0,0,0,2.418-1.4l.379.219A2.548,2.548,0,1,0,18.26,11.8ZM16.1,8.595a5.983,5.983,0,0,1,0,3.183.849.849,0,0,0,.394.962l.92.531a.849.849,0,1,1-.849,1.471l-.922-.533a.849.849,0,0,0-1.031.14,5.929,5.929,0,0,1-2.753,1.592.849.849,0,0,0-.638.823v1.064a.849.849,0,1,1-1.7,0V16.765a.849.849,0,0,0-.638-.823,5.929,5.929,0,0,1-2.752-1.6.849.849,0,0,0-1.031-.14l-.92.532a.849.849,0,1,1-.849-1.47l.92-.531a.849.849,0,0,0,.394-.962,5.983,5.983,0,0,1,0-3.183.849.849,0,0,0-.395-.958L3.328,7.1a.849.849,0,0,1,.849-1.471l.922.533a.849.849,0,0,0,1.031-.137A5.929,5.929,0,0,1,8.882,4.436.849.849,0,0,0,9.52,3.61V2.547a.849.849,0,1,1,1.7,0V3.61a.849.849,0,0,0,.638.823,5.929,5.929,0,0,1,2.753,1.6.849.849,0,0,0,1.031.14l.92-.532a.849.849,0,1,1,.849,1.47l-.92.531A.849.849,0,0,0,16.1,8.6Z" fill="#6c7293"/>
  </g>
</svg>
