<svg xmlns="http://www.w3.org/2000/svg" width="17.275" height="23.034" viewBox="0 0 17.275 23.034">
  <g id="receipt_1_" data-name="receipt (1)" transform="translate(-3)">
    <path id="Path_69395" data-name="Path 69395" d="M15.477,0H7.8A4.8,4.8,0,0,0,3,4.8V22.074a.96.96,0,0,0,1.5.792l2.021-1.381,2.021,1.381a.96.96,0,0,0,1.085,0l2.015-1.381,2.015,1.381a.96.96,0,0,0,1.085,0l2.015-1.38,2.015,1.379a.96.96,0,0,0,1.5-.791V4.8A4.8,4.8,0,0,0,15.477,0Zm2.879,20.251L17.3,19.529a.96.96,0,0,0-1.086,0L14.2,20.91l-2.015-1.381a.96.96,0,0,0-1.085,0L9.082,20.91,7.066,19.529a.96.96,0,0,0-1.084,0l-1.063.722V4.8A2.879,2.879,0,0,1,7.8,1.919h7.678A2.879,2.879,0,0,1,18.356,4.8Z" fill="#6c7293"/>
    <rect id="Rectangle_23789" data-name="Rectangle 23789" width="10" height="2" rx="1" transform="translate(6.638 7.517)" fill="#6c7293"/>
    <rect id="Rectangle_23790" data-name="Rectangle 23790" width="8" height="2" rx="1" transform="translate(6.638 11.517)" fill="#6c7293"/>
  </g>
</svg>
