<svg xmlns="http://www.w3.org/2000/svg" width="33.805" height="26.561" viewBox="0 0 33.805 26.561">
  <path id="Cheque" d="M35.994,17.244H23.921V11.811a1.811,1.811,0,0,0-3.622,0v5.433H8.226a1.813,1.813,0,0,0-1.811,1.811v.6h-.6A1.813,1.813,0,0,0,4,21.47V34.75a1.813,1.813,0,0,0,1.811,1.811H33.58a1.813,1.813,0,0,0,1.811-1.811v-.6h.6a1.813,1.813,0,0,0,1.811-1.811V19.055A1.813,1.813,0,0,0,35.994,17.244ZM22.11,26.157l-.6-1.207V14.829h1.207v10.12Zm0-14.949a.6.6,0,0,1,.6.6v1.811H21.506V11.811A.6.6,0,0,1,22.11,11.207ZM34.183,34.75a.6.6,0,0,1-.6.6H5.811a.6.6,0,0,1-.6-.6V21.47a.6.6,0,0,1,.6-.6h.6v11.47a1.813,1.813,0,0,0,1.811,1.811H34.183ZM36.6,32.336a.6.6,0,0,1-.6.6H8.226a.6.6,0,0,1-.6-.6V19.055a.6.6,0,0,1,.6-.6H20.3v6.64a.6.6,0,0,0,.064.27l.771,1.541H17.238a.6.6,0,0,0,0,1.207H22.11a.6.6,0,0,0,.209-.042c.018-.007.035-.015.052-.023a.6.6,0,0,0,.141-.095c.01-.009.021-.015.03-.025a.6.6,0,0,0,.107-.148l1.207-2.415a.6.6,0,0,0,.064-.27v-6.64H35.994a.6.6,0,0,1,.6.6V32.336ZM11.244,24.488a2.415,2.415,0,1,0-2.415-2.415A2.417,2.417,0,0,0,11.244,24.488Zm0-3.622a1.207,1.207,0,1,1-1.207,1.207A1.209,1.209,0,0,1,11.244,20.866Zm9.013,10.262a.6.6,0,0,1-.6.6H9.433a.6.6,0,1,1,0-1.207h10.22A.6.6,0,0,1,20.257,31.128Zm9.1-6.64a.6.6,0,0,0,.6.6,1.807,1.807,0,0,1,.6,3.511v.715a.6.6,0,1,1-1.207,0v-.6h-.6a.6.6,0,0,1,0-1.207h1.207a.6.6,0,0,0,0-1.207,1.807,1.807,0,0,1-.6-3.511v-.715a.6.6,0,1,1,1.207,0v.6h.6a.6.6,0,1,1,0,1.207H29.958A.6.6,0,0,0,29.354,24.488Z" transform="translate(-4 -10)" fill="#377cf6"/>
</svg>
