<svg xmlns="http://www.w3.org/2000/svg" width="21.422" height="16.191" viewBox="0 0 21.422 16.191">
  <path id="dashboard-panel" d="M18.307,6.923a.436.436,0,0,1-.436.436H15.256a.436.436,0,0,1,0-.872h2.615A.436.436,0,0,1,18.307,6.923ZM17.871,9.1H15.256a.436.436,0,0,0,0,.872h2.615a.436.436,0,0,0,0-.872Zm0,2.615H15.256a.436.436,0,0,0,0,.872h2.615a.436.436,0,0,0,0-.872Zm0,2.615H15.256a.436.436,0,0,0,0,.872h2.615a.436.436,0,0,0,0-.872Zm3.051-7.41v7.846A3.928,3.928,0,0,1,17,18.691H3.923A3.928,3.928,0,0,1,0,14.769V6.923A3.928,3.928,0,0,1,3.923,3H17A3.928,3.928,0,0,1,20.922,6.923Zm-.872,0A3.054,3.054,0,0,0,17,3.872H3.923A3.054,3.054,0,0,0,.872,6.923v7.846A3.054,3.054,0,0,0,3.923,17.82H17a3.054,3.054,0,0,0,3.051-3.051Zm-6.974,3.923a5.23,5.23,0,1,1-5.23-5.23A5.236,5.236,0,0,1,13.076,10.846ZM7.846,15.2a4.316,4.316,0,0,0,2.743-1l-2.8-2.8a1.3,1.3,0,0,1-.383-.925V6.531A4.347,4.347,0,0,0,7.846,15.2ZM12.2,10.846A4.349,4.349,0,0,0,8.282,6.531v3.953a.446.446,0,0,0,.127.309l2.8,2.8A4.313,4.313,0,0,0,12.2,10.846Z" transform="translate(0.25 -2.75)" fill="#fff" stroke="#fff" stroke-width="0.5"/>
</svg>
