<svg xmlns="http://www.w3.org/2000/svg" width="24" height="23.967" viewBox="0 0 24 23.967">
  <path id="fire-burner" d="M22,18V16a3,3,0,0,0-3-3h-.763a8.049,8.049,0,0,1-2.369,2H19a1,1,0,0,1,1,1v2H4V16a1,1,0,0,1,1-1H8.132a8.049,8.049,0,0,1-2.369-2H5a3,3,0,0,0-3,3v2H0v6H24V18ZM7,22H2V20H7Zm4,0H9V20h2Zm4,0H13V20h2Zm7,0H17V20h5ZM12,14.012A6.278,6.278,0,0,0,18,8c0-2.7-2.345-4.676-4.057-6.116-.467-.394-.908-.765-1.236-1.093l-.76-.76-.7.812A7.5,7.5,0,0,0,9.818,3.91c-.046.163-.1.361-.158.546q-.013-.047-.024-.093L9.21,2.593,7.945,3.9A5.953,5.953,0,0,0,6,8a6.278,6.278,0,0,0,6,6.01Zm.707-2.292a1.027,1.027,0,0,1-1.414,0,1,1,0,0,1,0-1.415L12,9.6l.706.708a1,1,0,0,1,0,1.415ZM8.442,6.483A1.377,1.377,0,0,0,9.5,7c1.534,0,1.945-1.476,2.245-2.553a10.2,10.2,0,0,1,.467-1.406l.443.375C14.145,4.671,16,6.231,16,8a3.97,3.97,0,0,1-1.034,2.66,2.969,2.969,0,0,0-.845-1.771L12,6.77,9.877,8.892a2.968,2.968,0,0,0-.842,1.771A3.969,3.969,0,0,1,8,8a2.95,2.95,0,0,1,.442-1.52Z" transform="translate(0 -0.033)" fill="#377cf6"/>
</svg>
