<svg xmlns="http://www.w3.org/2000/svg" width="20" height="20" viewBox="0 0 20 20">
  <path id="plug-cable" d="M19.167,8.333H17.5A4.171,4.171,0,0,0,13.333,12.5V15a3.333,3.333,0,0,1-6.667,0V12.43A5.007,5.007,0,0,0,10.833,7.5V5.833a.833.833,0,0,0,0-1.667H9.167V.833A.833.833,0,1,0,7.5.833V4.167H4.167V.833A.833.833,0,1,0,2.5.833V4.167H.833a.833.833,0,1,0,0,1.667V7.5A5.007,5.007,0,0,0,5,12.43V15a5,5,0,0,0,10,0V12.5A2.5,2.5,0,0,1,17.5,10h1.667a.833.833,0,1,0,0-1.667ZM2.5,7.5V5.833H9.167V7.5A3.333,3.333,0,0,1,2.5,7.5Z" fill="#377cf6"/>
</svg>
