<svg xmlns="http://www.w3.org/2000/svg" width="35.063" height="11.348" viewBox="0 0 35.063 11.348">
  <g id="g4158" transform="translate(-81.166 -105.048)">
    <path id="polygon9" d="M436.347,121.712h-2.84l1.777-10.985h2.84Z" transform="translate(-339.988 -5.48)" fill="#00579f"/>
    <path id="path11" d="M573.7,105.515a7,7,0,0,0-2.548-.468c-2.8,0-4.78,1.5-4.792,3.634-.023,1.578,1.414,2.454,2.489,2.98,1.1.538,1.472.888,1.472,1.368-.011.736-.888,1.075-1.706,1.075a5.653,5.653,0,0,1-2.665-.584l-.374-.176-.4,2.466a8.645,8.645,0,0,0,3.168.585c2.98,0,4.921-1.473,4.944-3.751.011-1.25-.748-2.209-2.384-2.992-.993-.5-1.6-.842-1.6-1.356.012-.468.515-.946,1.636-.946a4.826,4.826,0,0,1,2.116.421l.257.117.386-2.372Z" transform="translate(-467.043)" fill="#00579f"/>
    <path id="path13" d="M794.917,117.82c.234-.631,1.134-3.074,1.134-3.074-.012.023.233-.643.374-1.052l.2.947s.538,2.629.655,3.179Zm3.506-7.093h-2.2a1.4,1.4,0,0,0-1.485.911l-4.219,10.073h2.98l.6-1.648h3.647c.081.386.339,1.648.339,1.648h2.63l-2.292-10.985Z" transform="translate(-684.485 -5.48)" fill="#00579f"/>
    <path id="path15" d="M172.848,110.727l-2.782,7.491-.3-1.519a8.408,8.408,0,0,0-3.927-4.6l2.548,9.606h3l4.465-10.973Z" transform="translate(-81.701 -5.48)" fill="#00579f"/>
    <path id="path17" d="M85.782,110.727h-4.57l-.047.222a9.5,9.5,0,0,1,6.9,5.75l-.993-5.049a1.175,1.175,0,0,0-1.286-.923Z" transform="translate(0 -5.48)" fill="#faa61a"/>
  </g>
</svg>
